<?xml version="1.0" encoding="UTF-8" standalone="no"?>
<!DOCTYPE svg PUBLIC "-//W3C//DTD SVG 1.1//EN" "http://www.w3.org/Graphics/SVG/1.1/DTD/svg11.dtd">
<svg width="100%" height="100%" viewBox="0 0 44 38" version="1.1" xmlns="http://www.w3.org/2000/svg" xmlns:xlink="http://www.w3.org/1999/xlink" xml:space="preserve" xmlns:serif="http://www.serif.com/" style="fill-rule:evenodd;clip-rule:evenodd;stroke-linecap:round;stroke-linejoin:round;stroke-miterlimit:1.5;">
    <g transform="matrix(1,0,0,1,-1077.55,-300.8)">
        <g transform="matrix(1,0,0,1,-289.925,-290.366)">
            <g transform="matrix(1,0,0,1,-42.4888,79.6743)">
                <path d="M1445.32,526.699C1445.32,526.699 1449.21,527.137 1450.48,527.952C1451.7,528.742 1452.6,530.662 1452.89,531.592C1453.1,532.243 1452.24,533.532 1452.24,533.532L1450.54,540.364L1449.08,540.066L1444.93,544.78L1443.64,544.213L1438.36,547.376L1437.98,546.571L1431.62,548.57L1430.64,546.541L1424.49,546.6L1423.83,544.542L1419.84,544.452L1417.09,543.08L1410.79,542.513C1410.79,542.513 1411.61,540.236 1412.6,539.76C1413.64,539.262 1416.08,540.267 1417.02,539.522C1417.95,538.776 1418.21,535.285 1418.21,535.285L1416.81,533.763L1420.09,527.132L1418.3,524.864L1423.1,519.65L1423.1,517.74L1428.09,515.682L1428.17,514.145L1435.24,513.548L1435.87,512.325L1443.85,515.398C1443.85,515.398 1446.1,517.775 1446.72,518.949C1447.28,520.008 1447.58,522.44 1447.58,522.44L1445.32,526.699Z" style="fill:none;"/>
                <clipPath id="_clip1">
                    <path d="M1445.32,526.699C1445.32,526.699 1449.21,527.137 1450.48,527.952C1451.7,528.742 1452.6,530.662 1452.89,531.592C1453.1,532.243 1452.24,533.532 1452.24,533.532L1450.54,540.364L1449.08,540.066L1444.93,544.78L1443.64,544.213L1438.36,547.376L1437.98,546.571L1431.62,548.57L1430.64,546.541L1424.49,546.6L1423.83,544.542L1419.84,544.452L1417.09,543.08L1410.79,542.513C1410.79,542.513 1411.61,540.236 1412.6,539.76C1413.64,539.262 1416.08,540.267 1417.02,539.522C1417.95,538.776 1418.21,535.285 1418.21,535.285L1416.81,533.763L1420.09,527.132L1418.3,524.864L1423.1,519.65L1423.1,517.74L1428.09,515.682L1428.17,514.145L1435.24,513.548L1435.87,512.325L1443.85,515.398C1443.85,515.398 1446.1,517.775 1446.72,518.949C1447.28,520.008 1447.58,522.44 1447.58,522.44L1445.32,526.699Z"/>
                </clipPath>
                <g clip-path="url(#_clip1)">
                    <g transform="matrix(1,0,0,1,-0.00867142,-0.374587)">
                        <rect x="1406.67" y="506.735" width="54.065" height="48.196" style="fill:rgb(152,57,54);"/>
                    </g>
                    <g transform="matrix(1,3.33067e-16,1.11022e-16,1,139.279,106.61)">
                        <path d="M1281.15,436.677C1281.15,436.677 1299.82,435.343 1305.15,420.449C1310.49,405.554 1321.23,420.346 1321.23,420.346L1317.53,452.927L1280.83,448.944L1281.15,436.677Z" style="fill:rgb(116,52,50);"/>
                    </g>
                    <g transform="matrix(0.990324,0,0,0.872883,13.8965,65.4583)">
                        <path d="M1443.05,526.003C1443.05,526.003 1443.07,520.164 1437.13,517.891" style="fill:none;stroke:rgb(91,34,32);stroke-width:1.34px;"/>
                    </g>
                    <g transform="matrix(0.93927,0,0,1,87.3905,-0.374587)">
                        <path d="M1439.15,525.924C1439.15,525.924 1433.11,520.435 1421.34,525.123" style="fill:none;stroke:rgb(91,34,32);stroke-width:1.29px;"/>
                    </g>
                    <g transform="matrix(-1.18365,0.466081,0.116135,0.294932,3062.61,-285.696)">
                        <path d="M1439.15,525.924C1439.15,525.924 1429.49,535.58 1421.45,516.851" style="fill:none;stroke:rgb(91,34,32);stroke-width:1.35px;"/>
                    </g>
                    <g transform="matrix(1,0,0,1,-0.00867142,-0.374587)">
                        <path d="M1445.61,530.022C1445.61,530.022 1447.44,535.191 1445.53,541.718" style="fill:none;stroke:rgb(44,27,26);stroke-width:1.25px;"/>
                    </g>
                    <g transform="matrix(0.91808,0,0,0.910547,117.584,48.3615)">
                        <path d="M1443.48,532.847C1443.48,532.847 1443.5,539.943 1435.46,544.825" style="fill:none;stroke:rgb(44,27,26);stroke-width:1.37px;"/>
                    </g>
                </g>
                <path d="M1445.32,526.699C1445.32,526.699 1449.21,527.137 1450.48,527.952C1451.7,528.742 1452.6,530.662 1452.89,531.592C1453.1,532.243 1452.24,533.532 1452.24,533.532L1450.54,540.364L1449.08,540.066L1444.93,544.78L1443.64,544.213L1438.36,547.376L1437.98,546.571L1431.62,548.57L1430.64,546.541L1424.49,546.6L1423.83,544.542L1419.84,544.452L1417.09,543.08L1410.79,542.513C1410.79,542.513 1411.61,540.236 1412.6,539.76C1413.64,539.262 1416.08,540.267 1417.02,539.522C1417.95,538.776 1418.21,535.285 1418.21,535.285L1416.81,533.763L1420.09,527.132L1418.3,524.864L1423.1,519.65L1423.1,517.74L1428.09,515.682L1428.17,514.145L1435.24,513.548L1435.87,512.325L1443.85,515.398C1443.85,515.398 1446.1,517.775 1446.72,518.949C1447.28,520.008 1447.58,522.44 1447.58,522.44L1445.32,526.699Z" style="fill:none;stroke:black;stroke-width:1.67px;"/>
            </g>
        </g>
    </g>
</svg>
